<svg width="58" height="65" fill="none" xmlns="http://www.w3.org/2000/svg"><path d="M38.64 42.22l-9.18 4.28c-.41.19-.69.51-.86.96-.16.45-.15.87.04 1.28l4.28 9.18c.19.41.51.69.96.86.45.16.88.15 1.28-.04l9.18-4.28c.41-.19.7-.51.86-.96.16-.45.15-.88-.04-1.29l-4.28-9.17c-.19-.41-.51-.7-.96-.86-.45-.16-.88-.15-1.28.04zm-.77-33.09a17.351 17.351 0 00-6.33-2.98c-2.27-.56-4.63-.75-7.06-.57-2.43.17-4.67.73-6.71 1.68-7.75 3.62-12.08 9.76-13 18.45-.04.42.05.81.29 1.16.25.36.59.58 1.04.68l8.5 1.86c.43.05.79 0 1.1-.14.46-.21.76-.6.9-1.17.77-3.15 1.45-5.25 2.04-6.3.75-1.25 1.96-2.26 3.61-3.03 1.56-.73 3.12-.96 4.68-.7 1.57.27 2.6.93 3.1 2 .56 1.2.69 2.32.4 3.35-.29 1.04-1.03 2.25-2.21 3.64-1.58 1.82-2.75 4.06-3.54 6.7-.78 2.65-.68 5.03.31 7.14l.8 1.72c.23.49.58.9 1.07 1.25.49.35.92.43 1.31.25l9.17-4.28c.41-.19.67-.55.8-1.09.12-.53.08-1.02-.12-1.45-.3-.64-.35-1.66-.15-3.05.2-1.4.69-2.64 1.46-3.71.73-1.03 1.3-1.84 1.7-2.45.4-.6.88-1.5 1.43-2.69.54-1.18.89-2.27 1.04-3.25.14-.99.14-2.17-.03-3.55-.16-1.38-.56-2.76-1.21-4.14-.98-2.11-2.45-3.89-4.39-5.33z" fill="#1F4AE2"/></svg>