<svg width="36" height="39" viewBox="0 0 36 39" fill="none" xmlns="http://www.w3.org/2000/svg">
<path d="M35.1008 19.4999L20.1326 34.4681C18.0548 36.4925 15.2632 37.6171 12.3624 37.5982C9.46147 37.5793 6.68476 36.4186 4.63348 34.3673C2.5822 32.316 1.42145 29.5393 1.40258 26.6384C1.3837 23.7375 2.50822 20.9459 4.53263 18.8681L19.948 3.45274C21.3272 2.07361 23.1977 1.29883 25.148 1.29883C27.0984 1.29883 28.9689 2.07361 30.348 3.45274C31.7272 4.83186 32.5019 6.70236 32.5019 8.65274C32.5019 10.6031 31.7272 12.4736 30.348 13.8527L15.3772 28.8235C14.6877 29.5131 13.7524 29.9005 12.7772 29.9005C11.802 29.9005 10.8668 29.5131 10.1772 28.8235C9.48767 28.134 9.10027 27.1987 9.10027 26.2235C9.10027 25.2484 9.48767 24.3131 10.1772 23.6235L24.7008 9.09994" stroke="#1F4AE2"/>
</svg>
