<?xml version="1.0" encoding="utf-8"?><svg viewBox="0 0 158.004 40" xmlns="http://www.w3.org/2000/svg" xmlns:xlink="http://www.w3.org/1999/xlink"><style>:root>svg{display:none}:root>svg:target{display:block}</style><svg fill="none" viewBox="0 0 36 39" id="contact--Vector" xmlns="http://www.w3.org/2000/svg"><path d="M35.1 19.5 20.134 34.468a11.032 11.032 0 0 1-15.6-15.6L19.948 3.453a7.354 7.354 0 0 1 10.4 10.4l-14.97 14.97a3.677 3.677 0 1 1-5.2-5.2L24.7 9.1" stroke="#1F4AE2"/></svg><svg fill="none" viewBox="0 0 158.004 13.321" id="hero--Arrow1" xmlns="http://www.w3.org/2000/svg"><path d="M0 5.66h157v2H0v-2Zm155.586 1-4.949-4.95a.988.988 0 0 1 0-1.413.99.99 0 0 1 1.414 0l5.656 5.657a.988.988 0 0 1 0 1.414l-5.656 5.656a.99.99 0 0 1-1.414 0 .988.988 0 0 1 0-1.414l4.949-4.95Z" fill="#1F4AE2" fill-rule="evenodd"/></svg><svg fill="none" viewBox="0 0 40 40" id="trust--ooui_next-ltr" xmlns="http://www.w3.org/2000/svg"><path d="m14 2-2.8 3L26 20 11.2 35l2.8 3 18-18L14 2Z" fill="#1F4AE2"/></svg></svg>