<svg width="58.000000" height="65.000000" viewBox="0 0 58 65" fill="none" xmlns="http://www.w3.org/2000/svg" xmlns:xlink="http://www.w3.org/1999/xlink">
	<desc>
			Created with Pixso.
	</desc>
	<defs/>
	<path id="Vector" d="M38.64 42.22L29.46 46.5C29.05 46.69 28.77 47.01 28.6 47.46C28.44 47.91 28.45 48.33 28.64 48.74L32.92 57.92C33.11 58.33 33.43 58.61 33.88 58.78C34.33 58.94 34.76 58.93 35.16 58.74L44.34 54.46C44.75 54.27 45.04 53.95 45.2 53.5C45.36 53.05 45.35 52.62 45.16 52.21L40.88 43.04C40.69 42.63 40.37 42.34 39.92 42.18C39.47 42.02 39.04 42.03 38.64 42.22ZM37.87 9.13C35.93 7.69 33.82 6.7 31.54 6.15C29.27 5.59 26.91 5.4 24.48 5.58C22.05 5.75 19.81 6.31 17.77 7.26C10.02 10.88 5.69 17.02 4.77 25.71C4.73 26.13 4.82 26.52 5.06 26.87C5.31 27.23 5.65 27.45 6.1 27.55L14.6 29.41C15.03 29.46 15.39 29.41 15.7 29.27C16.16 29.06 16.46 28.67 16.6 28.1C17.37 24.95 18.05 22.85 18.64 21.8C19.39 20.55 20.6 19.54 22.25 18.77C23.81 18.04 25.37 17.81 26.93 18.07C28.5 18.34 29.53 19 30.03 20.07C30.59 21.27 30.72 22.39 30.43 23.42C30.14 24.46 29.4 25.67 28.22 27.06C26.64 28.88 25.47 31.12 24.68 33.76C23.9 36.41 24 38.79 24.99 40.9L25.79 42.62C26.02 43.11 26.37 43.52 26.86 43.87C27.35 44.22 27.78 44.3 28.17 44.12L37.34 39.84C37.75 39.65 38.01 39.29 38.14 38.75C38.26 38.22 38.22 37.73 38.02 37.3C37.72 36.66 37.67 35.64 37.87 34.25C38.07 32.85 38.56 31.61 39.33 30.54C40.06 29.51 40.63 28.7 41.03 28.09C41.43 27.49 41.91 26.59 42.46 25.4C43 24.22 43.35 23.13 43.5 22.15C43.64 21.16 43.64 19.98 43.47 18.6C43.31 17.22 42.91 15.84 42.26 14.46C41.28 12.35 39.81 10.57 37.87 9.13Z" fill="#1F4AE2" fill-opacity="1.000000" fill-rule="nonzero"/>
</svg>
