<svg width="60.000000" height="60.000000" viewBox="0 0 60 60" fill="none" xmlns="http://www.w3.org/2000/svg" xmlns:xlink="http://www.w3.org/1999/xlink">
	<desc>
			Created with Pixso.
	</desc>
	<defs>
		<clipPath id="clip696_1255">
			<rect id="Frame" width="60.000000" height="60.000000" fill="white" fill-opacity="0"/>
		</clipPath>
	</defs>
	<rect id="Frame" width="60.000000" height="60.000000" fill="#FFFFFF" fill-opacity="0"/>
	<g clip-path="url(#clip696_1255)">
		<path id="Vector" d="M47 10.08C47 9.43 46.47 8.91 45.83 8.91L31.75 8.91L31.75 27.68L47 27.68L47 10.08ZM28.24 8.91L14.16 8.91C13.52 8.91 12.99 9.43 12.99 10.08L12.99 19.84L18.63 14.2C19.32 13.51 20.43 13.51 21.12 14.2C21.8 14.89 21.8 16 21.12 16.69L12.99 24.81L12.99 27.68L28.24 27.68L28.24 8.91ZM24.68 22.72L23.18 24.22C23.02 24.39 22.82 24.52 22.61 24.61C22.4 24.69 22.17 24.74 21.94 24.74C21.71 24.74 21.48 24.69 21.26 24.61C21.05 24.52 20.86 24.39 20.69 24.22C20.01 23.54 20.01 22.43 20.69 21.74L22.2 20.23C22.88 19.55 24 19.55 24.68 20.23C25.37 20.92 25.37 22.03 24.68 22.72ZM12.99 31.2L28.24 31.2L28.24 44.69L12.99 44.69L12.99 31.2ZM31.75 31.2L47 31.2L47 44.69L31.75 44.69L31.75 31.2Z" fill="#1F4AE2" fill-opacity="1.000000" fill-rule="nonzero"/>
		<path id="Vector" d="M9.48 8.91C9.48 6.97 11.05 5.39 12.99 5.39L47 5.39C48.94 5.39 50.51 6.97 50.51 8.91L50.51 44.69L55.79 44.69L55.79 2.34C55.79 1.04 54.74 0 53.45 0L6.54 0C5.25 0 4.2 1.04 4.2 2.34L4.2 44.69L9.48 44.69L9.48 8.91ZM58.24 48.21L1.75 48.21C0.78 48.21 0 49 0 49.97L0 50.03C0 55.53 4.46 60 9.96 60L50.03 60C55.53 60 60 55.53 60 50.03L60 49.97C60 49 59.21 48.21 58.24 48.21Z" fill="#1F4AE2" fill-opacity="1.000000" fill-rule="nonzero"/>
	</g>
</svg>
