<svg width="60" height="60" fill="none" xmlns="http://www.w3.org/2000/svg"><defs><clipPath id="a"><path fill="#fff" fill-opacity="0" d="M0 0h60v60H0z"/></clipPath></defs><path d="M0 0h60v60H0z"/><g clip-path="url(#a)" fill="#1F4AE2"><path d="M47 10.08c0-.65-.53-1.17-1.17-1.17H31.75v18.77H47v-17.6zM28.24 8.91H14.16c-.64 0-1.17.52-1.17 1.17v9.76l5.64-5.64c.69-.69 1.8-.69 2.49 0 .68.69.68 1.8 0 2.49l-8.13 8.12v2.87h15.25V8.91zm-3.56 13.81l-1.5 1.5c-.16.17-.36.3-.57.39-.21.08-.44.13-.67.13a2 2 0 01-.68-.13c-.21-.09-.4-.22-.57-.39-.68-.68-.68-1.79 0-2.48l1.51-1.51a1.756 1.756 0 112.48 2.49zM12.99 31.2h15.25v13.49H12.99V31.2zm18.76 0H47v13.49H31.75V31.2z"/><path d="M9.48 8.91c0-1.94 1.57-3.52 3.51-3.52H47c1.94 0 3.51 1.58 3.51 3.52v35.78h5.28V2.34c0-1.3-1.05-2.34-2.34-2.34H6.54C5.25 0 4.2 1.04 4.2 2.34v42.35h5.28V8.91zm48.76 39.3H1.75C.78 48.21 0 49 0 49.97v.06C0 55.53 4.46 60 9.96 60h40.07c5.5 0 9.97-4.47 9.97-9.97v-.06c0-.97-.79-1.76-1.76-1.76z"/></g></svg>