<svg width="25.000000" height="25.000000" viewBox="0 0 25 25" fill="none" xmlns="http://www.w3.org/2000/svg" xmlns:xlink="http://www.w3.org/1999/xlink">
	<desc>
			Created with Pixso.
	</desc>
	<defs>
		<clipPath id="clip696_1244">
			<rect id="Frame" width="25.000000" height="25.000000" transform="translate(-0.500000 0.000000)" fill="white" fill-opacity="0"/>
		</clipPath>
	</defs>
	<rect id="Frame" width="25.000000" height="25.000000" transform="translate(-0.500000 0.000000)" fill="#FFFFFF" fill-opacity="0"/>
	<g clip-path="url(#clip696_1244)">
		<path id="Vector" d="M12 0C7.6 0 3.94 3.53 3.94 8.05C3.94 9.77 4.45 11.3 5.45 12.74L11.38 22C11.67 22.45 12.32 22.45 12.61 22L18.57 12.71C19.54 11.34 20.05 9.73 20.05 8.05C20.05 3.61 16.44 0 12 0ZM12 11.71C9.98 11.71 8.33 10.07 8.33 8.05C8.33 6.03 9.98 4.39 12 4.39C14.01 4.39 15.66 6.03 15.66 8.05C15.66 10.07 14.01 11.71 12 11.71Z" fill="#1F4AE2" fill-opacity="1.000000" fill-rule="nonzero"/>
		<path id="Vector" d="M17.72 16.83L14.03 22.59C13.08 24.08 10.91 24.08 9.96 22.59L6.26 16.83C3.01 17.58 1.01 18.96 1.01 20.6C1.01 23.46 6.67 25 12 25C17.32 25 22.98 23.46 22.98 20.6C22.98 18.95 20.98 17.58 17.72 16.83Z" fill="#1F4AE2" fill-opacity="1.000000" fill-rule="nonzero"/>
	</g>
</svg>
