<svg width="57.000000" height="60.000000" viewBox="0 0 57 60" fill="none" xmlns="http://www.w3.org/2000/svg" xmlns:xlink="http://www.w3.org/1999/xlink">
	<desc>
			Created with Pixso.
	</desc>
	<defs/>
	<path id="Vector" d="M28.12 -1C12.22 -1 -0.85 12.07 -0.85 27.97C-0.85 44.12 12.22 56.93 28.12 56.93C33.25 56.93 38.12 55.65 42.22 53.35L53.24 58.73C54.01 59.24 55.29 58.99 56.06 58.22C56.83 57.45 57.09 56.42 56.57 55.4L51.7 44.37C55.04 39.5 56.83 33.86 56.83 27.97C57.09 12.07 44.01 -1 28.12 -1ZM39.14 30.53L30.42 39.5C29.91 40.01 29.14 40.53 28.12 40.53C27.35 40.53 26.58 40.27 25.81 39.5L17.09 30.53C13.76 27.2 13.76 22.07 17.09 18.74C18.63 17.45 20.68 16.43 22.73 16.43C24.78 16.43 26.58 17.2 27.86 18.22C30.68 15.92 34.78 15.66 37.6 17.71C39.65 19.25 40.94 21.3 41.19 23.86C41.71 26.43 40.94 28.73 39.14 30.53Z" fill="#1F4AE2" fill-opacity="1.000000" fill-rule="nonzero"/>
</svg>
