<svg width="25" height="25" fill="none" xmlns="http://www.w3.org/2000/svg"><defs><clipPath id="a"><path transform="translate(-.5)" fill="#fff" fill-opacity="0" d="M0 0h25v25H0z"/></clipPath></defs><path d="M-.5 0h25v25h-25z"/><g clip-path="url(#a)" fill="#1F4AE2"><path d="M12 0C7.6 0 3.94 3.53 3.94 8.05c0 1.72.51 3.25 1.51 4.69L11.38 22c.29.45.94.45 1.23 0l5.96-9.29a8.016 8.016 0 001.48-4.66C20.05 3.61 16.44 0 12 0zm0 11.71a3.67 3.67 0 01-3.67-3.66A3.67 3.67 0 0112 4.39c2.01 0 3.66 1.64 3.66 3.66 0 2.02-1.65 3.66-3.66 3.66z"/><path d="M17.72 16.83l-3.69 5.76a2.412 2.412 0 01-4.07 0l-3.7-5.76c-3.25.75-5.25 2.13-5.25 3.77C1.01 23.46 6.67 25 12 25c5.32 0 10.98-1.54 10.98-4.4 0-1.65-2-3.02-5.26-3.77z"/></g></svg>