<svg width="57" height="60" fill="none" xmlns="http://www.w3.org/2000/svg"><path d="M28.12-1C12.22-1-.85 12.07-.85 27.97c0 16.15 13.07 28.96 28.97 28.96 5.13 0 10-1.28 14.1-3.58l11.02 5.38c.77.51 2.05.26 2.82-.51s1.03-1.8.51-2.82L51.7 44.37c3.34-4.87 5.13-10.51 5.13-16.4C57.09 12.07 44.01-1 28.12-1zm11.02 31.53l-8.72 8.97c-.51.51-1.28 1.03-2.3 1.03-.77 0-1.54-.26-2.31-1.03l-8.72-8.97c-3.33-3.33-3.33-8.46 0-11.79 1.54-1.29 3.59-2.31 5.64-2.31s3.85.77 5.13 1.79c2.82-2.3 6.92-2.56 9.74-.51 2.05 1.54 3.34 3.59 3.59 6.15.52 2.57-.25 4.87-2.05 6.67z" fill="#1F4AE2"/></svg>