<svg width="23" height="25" fill="none" xmlns="http://www.w3.org/2000/svg"><path d="M11.5 0C7.107 0 3.443 3.539 3.443 8.057c0 1.718.517 3.251 1.508 4.687l5.932 9.257c.288.45.946.45 1.234 0l5.958-9.288a8.02 8.02 0 001.482-4.656C19.557 3.614 15.942 0 11.5 0zm0 11.719a3.666 3.666 0 01-3.662-3.662A3.666 3.666 0 0111.5 4.395a3.666 3.666 0 013.662 3.662 3.666 3.666 0 01-3.662 3.662z" fill="#FFCE00"/><path d="M17.226 16.831l-3.688 5.766c-.955 1.488-3.126 1.483-4.076.001l-3.695-5.765c-3.25.751-5.253 2.128-5.253 3.773C.514 23.46 6.174 25 11.5 25c5.326 0 10.986-1.54 10.986-4.394 0-1.647-2.006-3.024-5.26-3.775z" fill="#FFCE00"/></svg>