<svg width="39" height="40" fill="none" xmlns="http://www.w3.org/2000/svg"><path d="M32.738 5c0 1.65-.369 2.856-.994 3.718-.012.02-.018.032-.03.044-1.297 1.763-3.642 2.088-5.964 1.85-1.994-.2-3.97-.812-5.256-1.281.214-.513.34-1.15.34-1.831 0-1.344-.483-2.488-1.167-2.932 2.672-1.75 13.065-8.187 13.071.432z" fill="#D00000"/><path d="M20.773 8.27a4.385 4.385 0 01-.279 1.06c1.286.47 3.262 1.082 5.256 1.282 2.322.238 4.667-.087 5.964-1.85.012-.012.018-.025.03-.044.625-.862.994-2.068.994-3.718a7.978 7.978 0 00-.134-1.51c-1.976 4.214-7.432 5.013-11.83 4.78z" fill="#BC0404"/><path d="M5.357 5c.018-8.6 10.41-2.169 13.071-.431-.684.443-1.166 1.587-1.166 2.93 0 .682.125 1.32.339 1.832-1.286.469-3.262 1.081-5.256 1.281-2.327.238-4.678-.087-5.976-1.862C5.738 7.88 5.35 6.669 5.357 5z" fill="#D00000"/><path d="M6.025 2.05c-.42.683-.665 1.64-.668 2.95-.006 1.669.38 2.881 1.012 3.75 1.298 1.775 3.649 2.1 5.976 1.863 1.994-.2 3.97-.813 5.256-1.282a4.457 4.457 0 01-.286-1.115c-4.556-.178-9-1.964-11.29-6.165z" fill="#BC0404"/><path d="M19.048 10.625c.986 0 1.785-1.4 1.785-3.125 0-1.726-.8-3.125-1.785-3.125-.986 0-1.786 1.4-1.786 3.125 0 1.726.8 3.125 1.786 3.125z" fill="#DC2F02"/><path d="M20.833 7.5c0 1.725-.797 3.125-1.785 3.125-.988 0-1.786-1.4-1.786-3.125 0-.325.03-.638.083-.932.227 1.263.905 2.182 1.703 2.182.797 0 1.476-.92 1.702-2.182.054.294.083.607.083.932z" fill="#D00000"/><path d="M22.619 18.124h2.143l.041-.006c.215 1.256.298 2.706.197 4.381l1.786-1.875 2.38 2.5s.09-2.225-.386-5h6.934v20c0 .688-.535 1.25-1.19 1.25h-12.5v-21.25h.595zm-6.548 0v21.25h-12.5c-.654 0-1.19-.562-1.19-1.25v-20h6.934c-.476 2.775-.387 5-.387 5l2.381-2.5 1.786 1.875c-.101-1.675-.018-3.125.197-4.38l.041.005h2.738z" fill="#FFC008"/><path d="M16.071 18.125h5.953v21.25H16.07v-21.25z" fill="#D00000"/><path d="M9.315 18.124a25.43 25.43 0 00-.25 1.875H2.381v-1.875h6.934zm6.756 0V20H13.09c.03-.675.101-1.3.203-1.88l.041.005h2.738z" fill="#FF9700"/><path d="M16.071 18.125h5.953V20H16.07v-1.875z" fill="#890711"/><path d="M25.006 20h-2.982v-1.876h2.738l.041-.006c.102.581.173 1.206.203 1.881z" fill="#FF9700"/><path d="M37.5 9.388V17.5c0 .344-.268.625-.595.625H28.78c-.41-2.469-1.274-5.362-3.03-7.512 2.322.237 4.667-.088 5.964-1.85h5.19c.328 0 .596.281.596.625zm-12.696 8.73l-.042.007h-2.143V12.82c.91 1.169 1.786 2.869 2.185 5.3z" fill="#FBDE08"/><path d="M37.5 9.388V17.5c0 .344-.268.625-.595.625H28.78a27.478 27.478 0 00-.244-1.25h5.956c.482 0 .944-.2 1.285-.559.341-.358.533-.843.533-1.35V8.763h.595c.327 0 .595.281.595.625zm-12.696 8.73l-.042.007h-2.143v-1.25h1.929c.1.394.184.806.256 1.244z" fill="#F9AF0B"/><path d="M15.476 12.819v5.306h-2.143l-.041-.006c.399-2.431 1.274-4.131 2.184-5.3zM6.37 8.75c1.298 1.775 3.649 2.1 5.976 1.863-1.756 2.15-2.619 5.043-3.03 7.512H1.19c-.327 0-.595-.281-.595-.625V9.375c0-.344.268-.625.595-.625h5.18z" fill="#FBDE08"/><path d="M16.071 36.875v2.5h-12.5c-.654 0-1.19-.563-1.19-1.25v-1.25h13.69z" fill="#FF9700"/><path d="M16.071 36.875h5.953v2.5H16.07v-2.5z" fill="#9D0208"/><path d="M18.452 10.45c.185.113.387.175.595.175.209 0 .405-.062.59-.175 0 0 1.541.531 2.982 2.369v5.306h-7.143V12.82c1.435-1.838 2.976-2.369 2.976-2.369z" fill="#BC0404"/><path d="M15.476 16.875v1.25h-2.143l-.041-.006c.071-.438.154-.85.256-1.244h1.928zm-5.917 0c-.095.425-.172.844-.244 1.25H1.19c-.327 0-.595-.281-.595-.625v-.625H9.56z" fill="#F9AF0B"/><path d="M15.476 16.875h7.143v1.25h-7.143v-1.25z" fill="#9D0208"/><path d="M22.619 12.819v1.875c-1.44-1.838-2.982-2.369-2.982-2.369a1.12 1.12 0 01-.59.175 1.14 1.14 0 01-.595-.175s-1.541.531-2.976 2.369v-1.875c1.435-1.838 2.976-2.369 2.976-2.369.185.113.387.175.595.175.209 0 .405-.062.59-.175 0 0 1.541.531 2.982 2.369z" fill="#890711"/><path d="M28.78 18.125c.476 2.775.387 5 .387 5l-2.381-2.5L25 22.5c.101-1.675.018-3.125-.196-4.381-.4-2.432-1.274-4.132-2.185-5.3-1.44-1.838-2.982-2.37-2.982-2.37.351-.212.649-.605.857-1.118 1.286.469 3.262 1.081 5.256 1.281 1.756 2.15 2.62 5.044 3.03 7.513z" fill="#D00000"/><path d="M26.223 23.006a19.5 19.5 0 00-.027-1.762l.59-.619 1.19 1.25-1.28 1.344a.264.264 0 01-.305.061.281.281 0 01-.124-.11.302.302 0 01-.044-.164z" fill="#FF9700"/><path d="M28.78 18.125c.113.663.196 1.3.25 1.875h.003c.185 1.837.133 3.125.133 3.125l.605.634c.219.23.594.066.588-.26A28.178 28.178 0 0030.07 20h.288c.79 0 1.546.33 2.105.915.558.586.871 1.381.871 2.21v12.5c0 .331-.125.65-.349.884a1.162 1.162 0 01-.841.366h-10.12v2.5h12.5c.655 0 1.191-.563 1.191-1.25v-20H28.78z" fill="#FF9700"/><path d="M29.726 18.125h-.946c-.411-2.469-1.274-5.363-3.03-7.513.429.044.851.07 1.274.07 1.196 2.212 2.315 5.7 2.702 7.443z" fill="#F9AF0B"/><path d="M26.976 12.481c-2.03-.162-4.035-.569-5.607-.962-.964-.807-1.732-1.07-1.732-1.07.351-.212.649-.605.857-1.118 1.286.469 3.262 1.081 5.256 1.281.47.575.881 1.207 1.226 1.87z" fill="#9D0208"/><path d="M17.601 9.331c.209.506.506.9.851 1.119 0 0-1.541.531-2.976 2.369-.91 1.168-1.786 2.868-2.184 5.3-.215 1.256-.298 2.706-.197 4.38l-1.786-1.874-2.38 2.5s-.09-2.225.386-5c.411-2.469 1.274-5.363 3.03-7.513 1.994-.2 3.97-.812 5.256-1.281z" fill="#D00000"/><path d="M13.887 19.368c-.185 1.081-.272 2.306-.228 3.693.008.243-.267.375-.43.203l-1.324-1.39-1.954 2.052c-.16.168-.435.052-.433-.186.002-.324.012-.759.041-1.278l1.75-1.838 1.786 1.875c-.101-1.675-.018-3.125.197-4.38l.041.005h.81c-.101.394-.185.807-.256 1.244z" fill="#FF7F00"/><path d="M15.476 12.818v2.107c-.518.843-1 1.9-1.333 3.2h-.81l-.041-.007c.399-2.43 1.274-4.13 2.184-5.3z" fill="#F9AF0B"/><path d="M18.453 10.45s-.768.262-1.727 1.069c-1.571.393-3.577.8-5.607.962.345-.662.756-1.294 1.226-1.869 1.994-.2 3.97-.812 5.256-1.281.209.506.506.9.852 1.119z" fill="#9D0208"/><path d="M18.569 5.958c-.383 0-.5.917-.117.917s.5-.917.117-.917z" fill="#F75B3C"/><path d="M2.648 9.644c-.471-.078-.838.31-1.027.806-.265.699-.333 1.616.333 1.726.494.08.364-.627.543-1.157.232-.688.793-1.27.15-1.375z" fill="#F7EDC6"/><path d="M8.475 1.889c-1.148 0-2.483 1.86-1.332 1.86 1.149 0 2.484-1.86 1.332-1.86z" fill="#F75B3C"/><path d="M1.949 12.419c-.383 0-.384.625 0 .625.383 0 .384-.625 0-.625z" fill="#F7EDC6"/></svg>