<svg width="46" height="46" fill="none" xmlns="http://www.w3.org/2000/svg"><g clip-path="url(#clip0_696_1211)"><path d="M1.458 22.725A22.135 22.135 0 004.346 33.69L1.277 45.055l11.467-3.05a21.378 21.378 0 0010.336 2.67h.01c11.92 0 21.624-9.84 21.629-21.933.002-5.86-2.246-11.37-6.33-15.516-4.083-4.145-9.514-6.43-15.3-6.432-11.923 0-21.625 9.838-21.63 21.93" fill="url(#paint0_linear_696_1211)"/><path d="M.688 22.718a22.93 22.93 0 002.99 11.358L.5 45.848l11.878-3.159a22.146 22.146 0 0010.707 2.766h.01c12.348 0 22.4-10.193 22.405-22.72.002-6.07-2.327-11.778-6.557-16.072C34.713 2.369 29.088.003 23.094 0 10.744 0 .693 10.191.688 22.718zm7.074 10.764l-.444-.714A19.032 19.032 0 014.471 22.72c.004-10.412 8.358-18.882 18.63-18.882 4.975.002 9.65 1.969 13.166 5.538s5.451 8.313 5.45 13.36c-.005 10.41-8.359 18.883-18.623 18.883h-.007a18.402 18.402 0 01-9.479-2.633l-.68-.41L5.88 40.45l1.882-6.968z" fill="url(#paint1_linear_696_1211)"/><path d="M17.496 13.22c-.42-.946-.86-.965-1.26-.981-.326-.014-.7-.013-1.073-.013s-.98.142-1.492.71c-.514.568-1.96 1.942-1.96 4.736 0 2.793 2.006 5.493 2.286 5.873.28.378 3.873 6.295 9.563 8.57 4.73 1.892 5.692 1.516 6.718 1.421 1.027-.094 3.313-1.373 3.779-2.699.467-1.326.467-2.462.327-2.7-.14-.236-.514-.378-1.073-.662-.56-.284-3.313-1.658-3.826-1.848-.513-.189-.886-.283-1.26.285-.373.568-1.445 1.847-1.772 2.225-.326.38-.653.427-1.213.143-.56-.285-2.363-.884-4.502-2.818-1.665-1.505-2.788-3.364-3.115-3.933-.326-.567-.035-.875.246-1.158.252-.254.56-.663.84-.994.28-.332.373-.569.56-.947.186-.38.093-.711-.047-.995-.14-.284-1.228-3.092-1.726-4.215z" fill="#fff"/></g><defs><linearGradient id="paint0_linear_696_1211" x1="2173.34" y1="4426.87" x2="2173.34" y2=".794" gradientUnits="userSpaceOnUse"><stop stop-color="#1FAF38"/><stop offset="1" stop-color="#60D669"/></linearGradient><linearGradient id="paint1_linear_696_1211" x1="2250.5" y1="4584.79" x2="2250.5" y2="0" gradientUnits="userSpaceOnUse"><stop stop-color="#F9F9F9"/><stop offset="1" stop-color="#fff"/></linearGradient><clipPath id="clip0_696_1211"><path fill="#fff" transform="translate(.5)" d="M0 0h45v46H0z"/></clipPath></defs></svg>