<svg width="37" height="38" fill="none" xmlns="http://www.w3.org/2000/svg"><path d="M21.977 5.475c2.15.828 4.235 2.214 6.027 4.004 1.787 1.788 3.177 3.879 4.021 6.047a1.183 1.183 0 102.203-.858c-.962-2.47-2.537-4.842-4.555-6.86-2.024-2.023-4.39-3.592-6.847-4.538a1.181 1.181 0 10-.85 2.205zm.894 3.88a1.182 1.182 0 10-.823 2.215c.785.291 1.584.83 2.31 1.557.718.716 1.27 1.537 1.558 2.311a1.182 1.182 0 002.214-.823c-.41-1.101-1.136-2.193-2.102-3.16-.964-.962-2.056-1.69-3.157-2.1zM14.98 22.52c-1.995-1.995-3.504-4.455-4.504-7.401a1.326 1.326 0 01.325-1.353l3.074-3.074a3.937 3.937 0 000-5.57l-3.348-3.347a3.937 3.937 0 00-5.57 0L3.566 3.167c-2.5 2.5-3.83 6.008-3.349 9.507.79 5.948 3.599 11.356 8.417 16.194 4.838 4.818 10.245 7.627 16.194 8.417 3.499.48 7.007-.85 9.506-3.349l1.394-1.393a3.938 3.938 0 000-5.57l-3.348-3.348a3.936 3.936 0 00-5.57 0L23.738 26.7a1.327 1.327 0 01-1.353.326c-2.948-1.002-5.408-2.51-7.403-4.506z" fill="#1F4AE2"/></svg>