<svg width="23" height="25" viewBox="0 0 23 25" fill="none" xmlns="http://www.w3.org/2000/svg">
<path d="M11.5 0C7.10718 0 3.44336 3.53857 3.44336 8.05664C3.44336 9.77549 3.95986 11.3082 4.95112 12.7444L10.8834 22.0013C11.1712 22.4513 11.8293 22.4504 12.1166 22.0013L18.0746 12.7129C19.0445 11.3418 19.5566 9.73179 19.5566 8.05664C19.5566 3.61421 15.9424 0 11.5 0ZM11.5 11.7187C9.48081 11.7187 7.83789 10.0758 7.83789 8.05664C7.83789 6.03745 9.48081 4.39453 11.5 4.39453C13.5192 4.39453 15.1621 6.03745 15.1621 8.05664C15.1621 10.0758 13.5192 11.7187 11.5 11.7187Z" fill="#FFCE00"/>
<path d="M17.2258 16.8311L13.5377 22.597C12.5831 24.0854 10.4116 24.0805 9.46152 22.5984L5.76748 16.8326C2.51729 17.584 0.513672 18.9606 0.513672 20.6057C0.513672 23.4603 6.17422 25.0002 11.5 25.0002C16.8258 25.0002 22.4863 23.4603 22.4863 20.6057C22.4863 18.9595 20.4799 17.5821 17.2258 16.8311Z" fill="#FFCE00"/>
</svg>
