<svg width="44" height="44" viewBox="0 0 44 44" fill="none" xmlns="http://www.w3.org/2000/svg">
<path d="M18.0494 20.4474C19.0965 21.4944 20.5166 22.0827 21.9974 22.0827C22.7306 22.0827 23.4566 21.9383 24.134 21.6577C24.8114 21.3771 25.4269 20.9658 25.9454 20.4474C26.4639 19.9289 26.8751 19.3134 27.1557 18.636C27.4363 17.9586 27.5807 17.2326 27.5807 16.4993C27.5807 15.0186 26.9925 13.5984 25.9454 12.5513C24.8983 11.5043 23.4782 10.916 21.9974 10.916C20.5166 10.916 19.0965 11.5043 18.0494 12.5513C17.0023 13.5984 16.4141 15.0186 16.4141 16.4993C16.4141 17.9801 17.0023 19.4003 18.0494 20.4474ZM21.9974 38.8101C21.6722 38.4289 21.2536 37.9296 20.7686 37.3321C19.5784 35.8655 17.9931 33.8129 16.4097 31.4661C14.8244 29.1165 13.2535 26.4902 12.0819 23.875C10.9044 21.2468 10.1641 18.7033 10.1641 16.4993C10.1641 13.361 11.4108 10.3511 13.63 8.13192C15.8491 5.91274 18.859 4.66602 21.9974 4.66602C25.1358 4.66602 28.1456 5.91274 30.3648 8.13192C32.584 10.3511 33.8307 13.361 33.8307 16.4993C33.8307 18.7033 33.0904 21.2468 31.9129 23.875C30.7413 26.4902 29.1704 29.1165 27.5851 31.4661C26.0017 33.8129 24.4164 35.8655 23.2261 37.3321C22.7412 37.9296 22.3226 38.4289 21.9974 38.8101Z" fill="#1F4AE2" stroke="white" stroke-width="2"/>
</svg>
