<svg width="39" height="40" viewBox="0 0 39 40" fill="none" xmlns="http://www.w3.org/2000/svg">
<path d="M32.7382 4.99974C32.7382 6.64974 32.3691 7.85599 31.7441 8.71849C31.7322 8.73724 31.7263 8.74974 31.7144 8.76224C30.4167 10.5247 28.0715 10.8497 25.7501 10.6122C23.756 10.4122 21.7798 9.79974 20.4941 9.33099C20.7084 8.81849 20.8334 8.18099 20.8334 7.49974C20.8334 6.15599 20.3513 5.01224 19.6667 4.56849C22.3394 2.81849 32.7322 -3.61901 32.7382 4.99974Z" fill="#D00000"/>
<path d="M20.7733 8.27023C20.7247 8.63505 20.6309 8.99162 20.4941 9.33086C21.7799 9.79961 23.756 10.4121 25.7501 10.6121C28.0715 10.8496 30.4168 10.5246 31.7144 8.76211C31.7263 8.74961 31.7322 8.73711 31.7441 8.71836C32.3691 7.85586 32.7382 6.64961 32.7382 4.99961C32.7415 4.49306 32.6967 3.98742 32.6043 3.49023C30.6275 7.70398 25.1715 8.50336 20.7733 8.27023Z" fill="#BC0404"/>
<path d="M5.357 4.99987C5.37486 -3.60013 15.7677 2.83112 18.4284 4.56862C17.7439 5.01237 17.2618 6.15612 17.2618 7.49987C17.2618 8.18112 17.3868 8.81862 17.601 9.33112C16.3153 9.79987 14.3391 10.4124 12.3451 10.6124C10.0177 10.8499 7.66652 10.5249 6.36891 8.74987C5.73795 7.88112 5.35105 6.66862 5.357 4.99987Z" fill="#D00000"/>
<path d="M6.02545 2.05078C5.60581 2.73328 5.35998 3.69016 5.357 5.00016C5.35105 6.66891 5.73795 7.88141 6.36891 8.75016C7.66652 10.5252 10.0177 10.8502 12.3451 10.6127C14.3391 10.4127 16.3153 9.80016 17.601 9.33141C17.4581 8.97482 17.3617 8.59953 17.3147 8.21578C12.7594 8.03766 8.31474 6.25203 6.02545 2.05078Z" fill="#BC0404"/>
<path d="M19.0477 10.625C20.0339 10.625 20.8334 9.22589 20.8334 7.5C20.8334 5.77411 20.0339 4.375 19.0477 4.375C18.0615 4.375 17.262 5.77411 17.262 7.5C17.262 9.22589 18.0615 10.625 19.0477 10.625Z" fill="#DC2F02"/>
<path d="M20.8334 7.49961C20.8334 9.22461 20.0358 10.6246 19.0477 10.6246C18.0596 10.6246 17.262 9.22461 17.262 7.49961C17.262 7.17461 17.2917 6.86211 17.3453 6.56836C17.5715 7.83086 18.2501 8.74961 19.0477 8.74961C19.8453 8.74961 20.5239 7.83086 20.7501 6.56836C20.8036 6.86211 20.8334 7.17461 20.8334 7.49961Z" fill="#D00000"/>
<path d="M22.619 18.1244H24.7618L24.8035 18.1182C25.0178 19.3744 25.1011 20.8244 24.9999 22.4994L26.7856 20.6244L29.1666 23.1244C29.1666 23.1244 29.2559 20.8994 28.7797 18.1244H35.7142V38.1244C35.7142 38.8119 35.1785 39.3744 34.5237 39.3744H22.0237V18.1244H22.619ZM16.0713 18.1244V39.3744H3.57134C2.91657 39.3744 2.38086 38.8119 2.38086 38.1244V18.1244H9.31538C8.83919 20.8994 8.92848 23.1244 8.92848 23.1244L11.3094 20.6244L13.0951 22.4994C12.994 20.8244 13.0773 19.3744 13.2916 18.1182L13.3332 18.1244H15.4761H16.0713Z" fill="#FFC008"/>
<path d="M16.0713 18.125H22.0237V39.375H16.0713V18.125Z" fill="#D00000"/>
<path d="M9.31538 18.1244C9.20229 18.7869 9.11895 19.4244 9.06538 19.9994H2.38086V18.1244H9.31538ZM16.0713 18.1244V19.9994H13.0892C13.119 19.3244 13.1904 18.6994 13.2916 18.1182L13.3332 18.1244H16.0713Z" fill="#FF9700"/>
<path d="M16.0713 18.125H22.0237V20H16.0713V18.125Z" fill="#890711"/>
<path d="M25.0058 19.9994H22.0237V18.1244H24.7618L24.8034 18.1182C24.9046 18.6994 24.9761 19.3244 25.0058 19.9994Z" fill="#FF9700"/>
<path d="M37.5001 9.3877V17.5002C37.5001 17.8439 37.2322 18.1252 36.9049 18.1252H28.7799C28.3691 15.6564 27.506 12.7627 25.7501 10.6127C28.0715 10.8502 30.4168 10.5252 31.7144 8.7627H36.9049C37.2322 8.7627 37.5001 9.04395 37.5001 9.3877ZM24.8037 18.1189L24.762 18.1252H22.6191V12.8189C23.5299 13.9877 24.4049 15.6877 24.8037 18.1189Z" fill="#FBDE08"/>
<path d="M37.5001 9.3877V17.5002C37.5001 17.8439 37.2322 18.1252 36.9049 18.1252H28.7799C28.7084 17.7189 28.631 17.3002 28.5358 16.8752H34.4918C34.9739 16.8752 35.4363 16.6741 35.7772 16.3161C36.1181 15.9582 36.3096 15.4727 36.3096 14.9664V8.7627H36.9049C37.2322 8.7627 37.5001 9.04395 37.5001 9.3877ZM24.8037 18.1189L24.762 18.1252H22.6191V16.8752H24.5477C24.6489 17.2689 24.7322 17.6814 24.8037 18.1189Z" fill="#F9AF0B"/>
<path d="M15.4762 12.8188V18.125H13.3333L13.2916 18.1187C13.6905 15.6875 14.5655 13.9875 15.4762 12.8188ZM6.36902 8.75C7.66664 10.525 10.0178 10.85 12.3452 10.6125C10.5893 12.7625 9.72617 15.6562 9.31545 18.125H1.19045C0.863072 18.125 0.595215 17.8438 0.595215 17.5V9.375C0.595215 9.03125 0.863072 8.75 1.19045 8.75H6.36902Z" fill="#FBDE08"/>
<path d="M16.0713 36.875V39.375H3.57134C2.91657 39.375 2.38086 38.8125 2.38086 38.125V36.875H16.0713Z" fill="#FF9700"/>
<path d="M16.0713 36.875H22.0237V39.375H16.0713V36.875Z" fill="#9D0208"/>
<path d="M18.4523 10.4502C18.6368 10.5627 18.8392 10.6252 19.0475 10.6252C19.2558 10.6252 19.4523 10.5627 19.6368 10.4502C19.6368 10.4502 21.1785 10.9814 22.6189 12.8189V18.1252H15.4761V12.8189C16.9106 10.9814 18.4523 10.4502 18.4523 10.4502Z" fill="#BC0404"/>
<path d="M15.4762 16.875V18.125H13.3333L13.2916 18.1187C13.3631 17.6812 13.4464 17.2688 13.5476 16.875H15.4762ZM9.5595 16.875C9.46426 17.3 9.38688 17.7188 9.31545 18.125H1.19045C0.863072 18.125 0.595215 17.8438 0.595215 17.5V16.875H9.5595Z" fill="#F9AF0B"/>
<path d="M15.4761 16.875H22.6189V18.125H15.4761V16.875Z" fill="#9D0208"/>
<path d="M22.6189 12.8189V14.6939C21.1785 12.8564 19.6368 12.3252 19.6368 12.3252C19.4523 12.4377 19.2558 12.5002 19.0475 12.5002C18.8392 12.5002 18.6368 12.4377 18.4523 12.3252C18.4523 12.3252 16.9106 12.8564 15.4761 14.6939V12.8189C16.9106 10.9814 18.4523 10.4502 18.4523 10.4502C18.6368 10.5627 18.8392 10.6252 19.0475 10.6252C19.2558 10.6252 19.4523 10.5627 19.6368 10.4502C19.6368 10.4502 21.1785 10.9814 22.6189 12.8189Z" fill="#890711"/>
<path d="M28.7798 18.1248C29.256 20.8998 29.1667 23.1248 29.1667 23.1248L26.7858 20.6248L25.0001 22.4998C25.1012 20.8248 25.0179 19.3748 24.8036 18.1186C24.4048 15.6873 23.5298 13.9873 22.6191 12.8186C21.1786 10.9811 19.637 10.4498 19.637 10.4498C19.9882 10.2373 20.2858 9.84355 20.4941 9.33105C21.7798 9.7998 23.756 10.4123 25.7501 10.6123C27.506 12.7623 28.3691 15.6561 28.7798 18.1248Z" fill="#D00000"/>
<path d="M26.2231 23.0056C26.2403 22.3844 26.2308 21.7963 26.1963 21.2438L26.7856 20.625L27.9761 21.875L26.6963 23.2188C26.6571 23.2598 26.607 23.2876 26.5526 23.2986C26.4982 23.3096 26.4419 23.3032 26.391 23.2802C26.3401 23.2573 26.2969 23.2189 26.267 23.17C26.237 23.121 26.2218 23.0638 26.2231 23.0056Z" fill="#FF9700"/>
<path d="M28.7796 18.125C28.8927 18.7875 28.9761 19.425 29.0296 20H29.0326C29.2177 21.8369 29.1665 23.125 29.1665 23.125L29.7707 23.7594C29.9898 23.9894 30.3653 23.825 30.3594 23.4994C30.3354 22.3275 30.2383 21.1586 30.0689 20H30.357C31.1463 20 31.9034 20.3292 32.4615 20.9153C33.0196 21.5013 33.3332 22.2962 33.3332 23.125V35.625C33.3332 35.9565 33.2078 36.2745 32.9845 36.5089C32.7613 36.7433 32.4585 36.875 32.1427 36.875H22.0237V39.375H34.5237C35.1784 39.375 35.7142 38.8125 35.7142 38.125V18.125H28.7796Z" fill="#FF9700"/>
<path d="M29.7262 18.1248H28.7798C28.369 15.6561 27.506 12.7623 25.75 10.6123C26.1786 10.6561 26.6012 10.6811 27.0238 10.6811C28.2202 12.8936 29.3393 16.3811 29.7262 18.1248Z" fill="#F9AF0B"/>
<path d="M26.9762 12.4811C24.9465 12.3186 22.9405 11.9123 21.3691 11.5186C20.4048 10.7123 19.637 10.4498 19.637 10.4498C19.9882 10.2373 20.2858 9.84355 20.4941 9.33105C21.7798 9.7998 23.756 10.4123 25.7501 10.6123C26.2203 11.1873 26.631 11.8186 26.9762 12.4811Z" fill="#9D0208"/>
<path d="M17.6011 9.33105C17.8095 9.8373 18.1071 10.2311 18.4523 10.4498C18.4523 10.4498 16.9107 10.9811 15.4761 12.8186C14.5654 13.9873 13.6904 15.6873 13.2916 18.1186C13.0773 19.3748 12.994 20.8248 13.0952 22.4998L11.3095 20.6248L8.92852 23.1248C8.92852 23.1248 8.83923 20.8998 9.31542 18.1248C9.72614 15.6561 10.5892 12.7623 12.3452 10.6123C14.3392 10.4123 16.3154 9.7998 17.6011 9.33105Z" fill="#D00000"/>
<path d="M13.8869 19.3682C13.7024 20.4494 13.6149 21.6738 13.6589 23.0613C13.6666 23.3044 13.3922 23.4357 13.2285 23.2644L11.9047 21.8744L9.95057 23.9263C9.79045 24.0944 9.51605 23.9782 9.51783 23.74C9.52021 23.4163 9.53033 22.9813 9.5595 22.4619L11.3095 20.6244L13.0952 22.4994C12.994 20.8244 13.0774 19.3744 13.2916 18.1182L13.3333 18.1244H14.1428C14.0416 18.5182 13.9583 18.9307 13.8869 19.3682Z" fill="#FF7F00"/>
<path d="M15.4763 12.8184V14.9246C14.9584 15.7684 14.4763 16.8246 14.1429 18.1246H13.3334L13.2917 18.1184C13.6906 15.6871 14.5656 13.9871 15.4763 12.8184Z" fill="#F9AF0B"/>
<path d="M18.4525 10.4498C18.4525 10.4498 17.6846 10.7123 16.7263 11.5186C15.1549 11.9123 13.1489 12.3186 11.1191 12.4811C11.4644 11.8186 11.8751 11.1873 12.3453 10.6123C14.3394 10.4123 16.3156 9.7998 17.6013 9.33105C17.8096 9.8373 18.1072 10.2311 18.4525 10.4498Z" fill="#9D0208"/>
<path d="M18.569 5.95801C18.1856 5.95801 18.0684 6.87488 18.4523 6.87488C18.835 6.87488 18.9523 5.95801 18.569 5.95801Z" fill="#F75B3C"/>
<path d="M2.64762 9.64367C2.17678 9.56617 1.80952 9.95492 1.62143 10.4499C1.35595 11.1487 1.28809 12.0662 1.95357 12.1755C2.44762 12.2568 2.31845 11.5487 2.49702 11.0193C2.72857 10.3312 3.28988 9.74867 2.64762 9.64367Z" fill="#F7EDC6"/>
<path d="M8.47547 1.88867C7.32666 1.88867 5.99154 3.74992 7.14273 3.74992C8.29154 3.74992 9.62666 1.88867 8.47547 1.88867Z" fill="#F75B3C"/>
<path d="M1.94888 12.4189C1.56614 12.4189 1.56495 13.0439 1.94888 13.0439C2.33221 13.0439 2.33281 12.4189 1.94888 12.4189Z" fill="#F7EDC6"/>
</svg>
