<svg width="47" height="48" viewBox="0 0 47 48" fill="none" xmlns="http://www.w3.org/2000/svg">
<circle cx="23.5" cy="24" r="21.5" fill="#1F4AE2" stroke="#1F4AE2" stroke-width="4"/>
<path d="M35.2509 31.3062C34.3347 30.3832 32.1158 29.0361 31.0393 28.4933C29.6373 27.7871 29.5219 27.7294 28.42 28.5481C27.6849 29.0944 27.1963 29.5824 26.3361 29.399C25.4759 29.2155 23.6066 28.1811 21.9698 26.5497C20.333 24.9182 19.2386 22.9948 19.0545 22.1376C18.8705 21.2803 19.3667 20.7974 19.9078 20.0607C20.6705 19.0223 20.6128 18.8492 19.9609 17.4474C19.4526 16.357 18.0662 14.1591 17.1397 13.2476C16.1485 12.2686 16.1485 12.4416 15.5098 12.707C14.9899 12.9258 14.4911 13.1917 14.0196 13.5014C13.0965 14.1146 12.5842 14.624 12.2259 15.3896C11.8676 16.1551 11.7067 17.9499 13.5569 21.3109C15.4071 24.6719 16.7053 26.3905 19.392 29.0696C22.0788 31.7487 24.1449 33.1892 27.1651 34.883C30.9014 36.9754 32.3345 36.5675 33.1024 36.2098C33.8703 35.8522 34.382 35.3445 34.9965 34.4215C35.307 33.9508 35.5735 33.4526 35.7926 32.9331C36.0586 32.2967 36.2317 32.2967 35.2509 31.3062Z" stroke="white" stroke-width="3" stroke-miterlimit="10"/>
</svg>
