<svg width="46" height="46" viewBox="0 0 46 46" fill="none" xmlns="http://www.w3.org/2000/svg">
<g clip-path="url(#clip0_696_1211)">
<path d="M1.4584 22.7249C1.45734 26.5898 2.45297 30.3636 4.34613 33.6898L1.27734 45.0547L12.7439 42.0051C15.9154 43.7564 19.4688 44.674 23.0798 44.6742H23.0893C35.0099 44.6742 44.7136 34.8354 44.7187 22.7422C44.721 16.8822 42.4731 11.3718 38.389 7.2261C34.3056 3.08075 28.8748 0.79662 23.0885 0.793945C11.1664 0.793945 1.4635 10.6322 1.45857 22.7249" fill="url(#paint0_linear_696_1211)"/>
<path d="M0.688086 22.7176C0.686855 26.7215 1.71816 30.6303 3.67883 34.0757L0.5 45.8479L12.3777 42.6891C15.6504 44.4989 19.3351 45.4532 23.0846 45.4546H23.0942C35.4425 45.4546 45.4947 35.2619 45.5 22.7358C45.5021 16.6652 43.1734 10.9567 38.9434 6.66251C34.7128 2.36882 29.0878 0.00249612 23.0942 0C10.7438 0 0.693008 10.1913 0.688086 22.7176ZM7.7617 33.4823L7.3182 32.7682C5.45387 29.7615 4.46984 26.2869 4.47125 22.719C4.47512 12.3075 12.8289 3.8369 23.1013 3.8369C28.0759 3.83904 32.7509 5.80598 36.2673 9.37473C39.7834 12.9438 41.7182 17.6882 41.717 22.7343C41.7124 33.1459 33.3584 41.6175 23.0942 41.6175H23.0868C19.7447 41.6157 16.4669 40.7054 13.6084 38.985L12.9281 38.5758L5.87961 40.4502L7.7617 33.4823Z" fill="url(#paint1_linear_696_1211)"/>
<path d="M17.4959 13.22C17.0765 12.2745 16.6351 12.2554 16.2362 12.2388C15.9096 12.2245 15.5363 12.2256 15.1633 12.2256C14.7899 12.2256 14.1833 12.3681 13.6705 12.9359C13.1573 13.5043 11.7109 14.8779 11.7109 17.6716C11.7109 20.4655 13.7171 23.1654 13.9968 23.5446C14.2768 23.9232 17.8698 29.8397 23.5602 32.1158C28.2894 34.0073 29.2518 33.6311 30.2782 33.5363C31.3047 33.4418 33.5906 32.163 34.057 30.8371C34.5237 29.5113 34.5237 28.3748 34.3837 28.1373C34.2438 27.9007 33.8704 27.7586 33.3106 27.4748C32.7505 27.1908 29.9982 25.817 29.4851 25.6275C28.9718 25.4381 28.5986 25.3436 28.2252 25.9122C27.8519 26.4799 26.7798 27.7586 26.453 28.1373C26.1266 28.5169 25.7998 28.5642 25.2401 28.2801C24.6799 27.9952 22.8769 27.3963 20.7378 25.462C19.0735 23.9569 17.9499 22.0981 17.6233 21.5295C17.2967 20.9619 17.5884 20.6541 17.8691 20.3712C18.1206 20.1167 18.4291 19.7081 18.7093 19.3766C18.9885 19.045 19.0816 18.8084 19.2683 18.4297C19.4552 18.0507 19.3616 17.719 19.2219 17.435C19.0816 17.151 17.9937 14.3427 17.4959 13.22Z" fill="white"/>
</g>
<defs>
<linearGradient id="paint0_linear_696_1211" x1="2173.34" y1="4426.87" x2="2173.34" y2="0.793945" gradientUnits="userSpaceOnUse">
<stop stop-color="#1FAF38"/>
<stop offset="1" stop-color="#60D669"/>
</linearGradient>
<linearGradient id="paint1_linear_696_1211" x1="2250.5" y1="4584.79" x2="2250.5" y2="0" gradientUnits="userSpaceOnUse">
<stop stop-color="#F9F9F9"/>
<stop offset="1" stop-color="white"/>
</linearGradient>
<clipPath id="clip0_696_1211">
<rect width="45" height="46" fill="white" transform="translate(0.5)"/>
</clipPath>
</defs>
</svg>
