<svg width="37" height="38" viewBox="0 0 37 38" fill="none" xmlns="http://www.w3.org/2000/svg">
<path d="M21.9767 5.47487C24.1279 6.30306 26.2122 7.68906 28.0037 9.47931C29.7914 11.2669 31.1813 13.3577 32.0252 15.526C32.0778 15.6757 32.1599 15.8134 32.2668 15.9307C32.3736 16.0481 32.503 16.1427 32.6472 16.209C32.7914 16.2753 32.9475 16.3119 33.1061 16.3166C33.2647 16.3213 33.4227 16.294 33.5706 16.2364C33.7184 16.1787 33.8532 16.0919 33.9668 15.9811C34.0804 15.8703 34.1706 15.7378 34.2319 15.5914C34.2932 15.445 34.3244 15.2878 34.3237 15.1291C34.3229 14.9704 34.2903 14.8134 34.2276 14.6676C33.2656 12.1975 31.6906 9.82581 29.6732 7.80849C27.6494 5.78462 25.2829 4.21618 22.8259 3.26987C22.6811 3.21411 22.5268 3.18742 22.3717 3.19131C22.2166 3.1952 22.0638 3.2296 21.922 3.29255C21.6356 3.41968 21.4114 3.65537 21.2988 3.94778C21.1862 4.24018 21.1944 4.56534 21.3215 4.85172C21.4487 5.13811 21.6843 5.36226 21.9767 5.47487ZM22.8706 9.35593C22.7245 9.29887 22.5686 9.27144 22.4119 9.27526C22.2551 9.27908 22.1007 9.31405 21.9576 9.37816C21.8146 9.44226 21.6857 9.5342 21.5785 9.64863C21.4713 9.76305 21.388 9.89767 21.3334 10.0446C21.2787 10.1916 21.2539 10.348 21.2604 10.5046C21.2668 10.6613 21.3043 10.8151 21.3708 10.9571C21.4373 11.099 21.5314 11.2264 21.6476 11.3316C21.7638 11.4369 21.8998 11.518 22.0476 11.5701C22.8325 11.8615 23.6318 12.3996 24.3589 13.1267C25.0756 13.8434 25.6281 14.6637 25.9156 15.4381C26.0353 15.7168 26.2577 15.9389 26.5366 16.0583C26.8155 16.1777 27.1296 16.1854 27.414 16.0797C27.6984 15.974 27.9313 15.763 28.0646 15.4904C28.1978 15.2178 28.2211 14.9044 28.1297 14.6151C27.7202 13.5139 26.9944 12.4219 26.0284 11.4559C25.0637 10.4926 23.9717 9.76543 22.8706 9.35593ZM14.9811 22.519C12.9861 20.524 11.4767 18.0644 10.4766 15.1178C10.4002 14.8842 10.3902 14.634 10.4477 14.3951C10.5052 14.1562 10.6279 13.9379 10.8021 13.7646L13.876 10.6907C14.2417 10.3251 14.5318 9.89101 14.7297 9.41325C14.9276 8.93548 15.0295 8.42341 15.0295 7.90628C15.0295 7.38914 14.9276 6.87707 14.7297 6.39931C14.5318 5.92154 14.2417 5.48745 13.876 5.12181L10.5278 1.77362C10.1622 1.40792 9.72807 1.11782 9.2503 0.919905C8.77254 0.721986 8.26047 0.620117 7.74333 0.620117C7.2262 0.620117 6.71413 0.721986 6.23636 0.919905C5.7586 1.11782 5.32451 1.40792 4.95887 1.77362L3.56499 3.16749C1.06599 5.66649 -0.263572 9.17481 0.216803 12.6739C1.00693 18.6222 3.81568 24.0297 8.63387 28.8676C13.4717 33.6857 18.8792 36.4945 24.8275 37.2846C28.3266 37.765 31.8349 36.4354 34.3339 33.9364L35.7278 32.5426C36.0935 32.1769 36.3836 31.7428 36.5815 31.2651C36.7794 30.7873 36.8813 30.2752 36.8813 29.7581C36.8813 29.2409 36.7794 28.7289 36.5815 28.2511C36.3836 27.7734 36.0935 27.3393 35.7278 26.9736L32.3796 23.6254C32.014 23.2597 31.5799 22.9696 31.1021 22.7717C30.6244 22.5738 30.1123 22.4719 29.5951 22.4719C29.078 22.4719 28.5659 22.5738 28.0882 22.7717C27.6104 22.9696 27.1763 23.2597 26.8107 23.6254L23.7368 26.6993C23.3851 27.0511 22.8548 27.1849 22.3836 27.0248C19.4357 26.0234 16.9761 24.5153 14.9811 22.519Z" fill="#1F4AE2"/>
</svg>
